<svg xmlns="http://www.w3.org/2000/svg" viewBox="0 0 128 128" width="128" height="128" role="img" aria-labelledby="metaTitle metaDesc">
  <title id="metaTitle">Meta placeholder</title>
  <desc id="metaDesc">Spark cyan Meta social layer placeholder icon.</desc>
  <rect width="128" height="128" rx="28" fill="#0A0A0A" />
  <path d="M24 78C32 46 44 34 58 34C70 34 77 45 84 60C90 48 97 38 108 38C116 38 121 46 121 58C121 77 108 94 93 94C81 94 74 83 64 64C55 84 47 96 35 96C23 96 14 85 14 68C14 56 18 48 24 42" transform="translate(-4 0)" fill="none" stroke="#00E5FF" stroke-width="8" stroke-linecap="round" stroke-linejoin="round" />
</svg>
