<svg xmlns="http://www.w3.org/2000/svg" viewBox="0 0 512 512" width="512" height="512">
  <rect width="512" height="512" rx="100" fill="#000000" />
  <!-- ShadowSpark "SS" Monogram in Cyan -->
  <path d="M 336 176 L 336 128 C 336 128 200 128 176 160 C 152 192 176 256 176 256 L 272 256 C 272 256 312 256 312 288 C 312 320 272 352 240 352 L 176 352 L 176 400 L 256 400 C 256 400 360 400 360 336 C 360 272 272 256 272 256 L 176 256 C 176 256 160 256 160 224 C 160 192 184 176 216 176 Z" fill="#00E5FF" />
  <!-- Spark Element -->
  <path d="M 384 128 L 416 160 L 384 192 L 352 160 Z" fill="#00E5FF" />
</svg>
